<?xml version="1.0" encoding="utf-8"?>
<!-- Generator: Adobe Illustrator 19.2.1, SVG Export Plug-In . SVG Version: 6.00 Build 0)  -->
<svg version="1.1" id="layer" xmlns="http://www.w3.org/2000/svg" xmlns:xlink="http://www.w3.org/1999/xlink" x="0px" y="0px"
     viewBox="0 0 652 652" style="enable-background:new 0 0 652 652;" xml:space="preserve">
<style type="text/css">
	.st0{fill:#A3B500;}
	.st1{fill:#FF7A01;}
	.st2{fill:#572983;}
</style>
    <g>
	<path class="st0" d="M271.8,182.5c8.1-0.6,16.1-0.7,24.2-0.4c5-0.4,10.1-0.1,15,0.9c5,2,8.1,6.9,7.9,12.2v115c0,3.6-0.6,7.8,2,10.6
		s4.5,1.8,7.1,2h44.3c7.3-0.6,13.7,4.8,14.3,12.1c0,0.5,0.1,1.1,0,1.6c0,8.5,0,17,0,25.5c-0.4,7-6.4,12.3-13.4,11.9h-99.1
		c-7.2-0.4-12.8-6.5-12.4-13.7v-165c0.2-6.1,4.4-11.3,10.3-12.9L271.8,182.5z"/>
</g>
    <g>
	<path class="st1" d="M526,215.9c5.2-6.2,12.7-10,20.8-10.6c3.6,0,7.1,0.7,10.5,2c3.2,6,4,13.1,2.1,19.7c-3.2,10.4-8.7,20-16.3,27.9
		c-11.9,15-22.8,30.7-33.8,46.4c-2.4,3.4-4.9,6.7-7.1,10.3c-1.3,1.3,0,2.5,0.9,3.8c22.6,33.1,45,66.3,67.6,99.4
		c5,5.6,7.9,12.7,8.3,20.2c-0.6,4.9-4,9-8.6,10.5c-13.7,5.7-28.1,9.7-42.9,11.9c-10,1.4-19.8-3.8-24.2-12.9
		c-12.3-25.9-25.6-51-38.6-76.5c-15.6,22.9-30.7,46.3-45.9,69.6c-2.8,4.3-6.7,7.8-11.4,10.1c-3,1.5-6.6,1.3-9.4-0.6
		c-2.7-2.2-5.1-4.9-7.1-7.8c-5.2-7.2-10-14.7-14.3-22.4c-3.5-7-4.1-15.1-1.5-22.4c2.3-6.5,5.8-12.6,10.5-17.7
		c17.3-19.9,34.7-39.7,52.2-59.5c-11.9-23.3-24.2-46.3-36.1-69.4c-3.3-6.5-4.7-13.7-4.1-20.9c0.1-5.8,3.1-11.2,8.1-14.3
		c7.5-4.4,16.8-4.6,24.6-0.7c3.7,2.1,6.8,5.2,9,8.9l36.3,53.5C492.3,254.8,509.1,235.3,526,215.9z"/>
</g>
    <g>
	<path class="st2" d="M143,213.2c18.9-2.3,38.1,1.7,54.5,11.4c20.7,12.7,36.5,32,45,54.8c10.3,26.8,11.6,56.2,3.8,83.8
		c-6.8,25.4-22.2,47.7-43.6,62.9c-14.3,10-31.2,15.4-48.6,15.6c-18.5-0.1-36.4-6.1-51.3-17c-22-16.9-37.3-41.1-42.9-68.3
		c-7.3-31.1-3-63.8,12.1-92c9.8-18.3,24.9-33.2,43.4-42.9c8.7-4.3,18-7.2,27.6-8.5L143,213.2z M145.8,249.9
		c-9.5,3.3-17.6,9.8-22.8,18.4c-7.8,12.4-12.7,26.5-14.3,41.1c-3.2,21.4-0.7,43.3,7.1,63.4c4.2,11.4,11.9,21.1,21.9,28
		c8,5.2,18,6.1,26.7,2.4c8-3.8,14.8-9.8,19.4-17.4c7.6-12.4,12.5-26.2,14.3-40.6c3.2-21.7,0.6-43.9-7.6-64.3
		c-4.3-10.6-11.3-19.9-20.4-26.9c-7.2-4.9-16.2-6.4-24.6-4L145.8,249.9z"/>
</g>
</svg>
